:version 1.10
:name ASF
:units
  mass 1
  length 1
  angle deg
:documentation
  ASF file generated by Kaydara
:root
  axis xyz
  order  tx ty tz rx ry rz
  position 0 0 0
  orientation 0 0 0
:bonedata
  begin
    id 1
    name LeftUpLegDummy
    direction 1 -2.30186e-007 -8.31532e-007
    length 2.93387
    axis 0 0 0 xyz
  end
  begin
    id 2
    name LeftUpLeg
    direction -1.82929e-007 -1 -1.48925e-009
    length 17.3336
    axis -3.48766 0.00143442 -0.000521554 xyz
    dof rx ry rz
  end
  begin
    id 3
    name LeftLeg
    direction -1.82929e-007 -1 -5.23717e-011
    length 14.9995
    axis 3.68178 -0.00654042 -0.000282425 xyz
    dof rx ry rz
  end
  begin
    id 4
    name LeftFoot
    direction 8.31532e-007 -4.54534e-011 1
    length 6.74421
    axis 1.87234e-006 4.66016e-005 -5.96866e-006 xyz
    dof rx ry rz
  end
  begin
    id 5
    name LeftToes
    direction 0.00818058 -0.00485161 0.999955
    length 3.85048
    axis 1.06247e-005 4.65869e-005 -5.96999e-006 xyz
    dof rx ry rz
  end
  begin
    id 6
    name SpineDummy
    direction -5.8607e-008 0.943407 -0.331637
    length 5.93572
    axis 0 0 0 xyz
  end
  begin
    id 7
    name Spine
    direction -1.04988e-007 0.999988 0.00495137
    length 10.1015
    axis -0.001389 0.000121417 6.61666e-006 xyz
    dof rx ry rz
  end
  begin
    id 8
    name Spine1
    direction 0 0 0
    length 0
    axis -0.001389 0.00012144 6.56766e-006 xyz
    dof rx ry rz
  end
  begin
    id 9
    name RightShoulderDummy
    direction -0.98348 0.17941 -0.0240696
    length 3.59882
    axis -0.001389 0.00012144 6.56766e-006 xyz
  end
  begin
    id 10
    name RightShoulder
    direction -0.978693 0.204882 0.0135597
    length 2.70001
    axis 0.215806 0.000203631 -0.00679732 xyz
    dof rx ry rz
  end
  begin
    id 11
    name RightArm
    direction -1 3.85509e-006 8.31394e-007
    length 10.2459
    axis -23.2009 -0.134239 -0.964098 xyz
    dof rx ry rz
  end
  begin
    id 12
    name RightForeArm
    direction -1 3.85569e-006 8.3129e-007
    length 8.16799
    axis -9.92322 0.0658061 0.17887 xyz
    dof rx ry rz
  end
  begin
    id 13
    name RightHand
    direction -0.992843 -0.0414604 0.112003
    length 5.28593
    axis -0.00960638 0.00330669 -0.185225 xyz
    dof rx ry rz
  end
  begin
    id 14
    name LeftShoulder1Dummy
    direction 0.983523 0.179172 -0.0240748
    length 3.59866
    axis -0.001389 0.00012144 6.56766e-006 xyz
  end
  begin
    id 15
    name LeftShoulder1
    direction 0.978627 0.205195 0.0135605
    length 2.70019
    axis -0.001389 0.00012144 6.57583e-006 xyz
    dof rx ry rz
  end
  begin
    id 16
    name LeftArm
    direction 1 3.51895e-006 -8.60188e-007
    length 10.2459
    axis -23.1894 0.134785 0.967513 xyz
    dof rx ry rz
  end
  begin
    id 17
    name LeftForeArm
    direction 1 3.51921e-006 -7.32029e-007
    length 8.16799
    axis -9.91835 -0.0656957 -0.177789 xyz
    dof rx ry rz
  end
  begin
    id 18
    name LeftHand
    direction 0.992938 -0.0411636 0.11126
    length 5.32135
    axis -0.00960237 -0.00340661 0.185177 xyz
    dof rx ry rz
  end
  begin
    id 19
    name HEadDummy
    direction 1.01974e-006 0.999861 -0.016675
    length 2.99946
    axis -0.001389 0.00012144 6.56766e-006 xyz
  end
  begin
    id 20
    name HEad
    direction -0.0222689 0.980941 0.193023
    length 5.12695
    axis -0.001389 0.00012144 6.56766e-006 xyz
    dof rx ry rz
  end
  begin
    id 21
    name RightUpLegDummy
    direction -1 2.30186e-007 8.31532e-007
    length 2.93387
    axis 0 0 0 xyz
  end
  begin
    id 22
    name RightUpLeg
    direction -1.82966e-007 -1 1.56832e-007
    length 17.3336
    axis -3.4909 -0.000906625 0.00028951 xyz
    dof rx ry rz
  end
  begin
    id 23
    name RightLeg
    direction -1.82786e-007 -1 -1.80317e-007
    length 14.9995
    axis 3.68513 0.0193739 -0.131021 xyz
    dof rx ry rz
  end
  begin
    id 24
    name RightFoot
    direction 8.31721e-007 -4.63324e-011 1
    length 6.74421
    axis 4.81691e-005 -0.120479 -0.188785 xyz
    dof rx ry rz
  end
  begin
    id 25
    name RightToes
    direction 0.00124746 -0.014064 0.9999
    length 3.85082
    axis 0.000481921 0.542163 -0.142575 xyz
    dof rx ry rz
  end
:hierarchy
  begin
    root LeftUpLegDummy SpineDummy RightUpLegDummy
    LeftUpLegDummy LeftUpLeg
    LeftUpLeg LeftLeg
    LeftLeg LeftFoot
    LeftFoot LeftToes
    SpineDummy Spine
    Spine Spine1
    Spine1 RightShoulderDummy LeftShoulder1Dummy HEadDummy
    RightShoulderDummy RightShoulder
    RightShoulder RightArm
    RightArm RightForeArm
    RightForeArm RightHand
    LeftShoulder1Dummy LeftShoulder1
    LeftShoulder1 LeftArm
    LeftArm LeftForeArm
    LeftForeArm LeftHand
    HEadDummy HEad
    RightUpLegDummy RightUpLeg
    RightUpLeg RightLeg
    RightLeg RightFoot
    RightFoot RightToes
  end

:SAMPLES-PER-SECOND 30
:FULLY-SPECIFIED
:DEGREES
82
root  -0.483164 33.7466 -8.54072 7.59341 -18.406 -6.21245
LeftUpLeg  -14.0897 15.625 16.5677
LeftLeg  4.01411 19.2976 0.109385
LeftFoot  21.8271 -1.43995 7.45789
LeftToes  -27.5266 8.556e-007 1.17171e-007
Spine  2.50889 -2.75939 4.9186
Spine1  4.7138 -5.63725 9.48032
RightShoulder  0.0405175 4.33325 6.59712
RightArm  -33.279 -5.17379 65.1497
RightForeArm  23.18 28.9095 5.58471
RightHand  1.42304 -12.705 -12.3541
LeftShoulder1  0.00546764 2.97587 -3.55473
LeftArm  30.9647 -18.3809 -85.1005
LeftForeArm  131.21 -46.8546 -168.862
LeftHand  2.17317 13.167 18.2858
HEad  37.8775 -9.969 -7.92167
RightUpLeg  -10.6389 -8.65345 8.75877
RightLeg  10.873 11.6038 1.45717
RightFoot  0.587765 0.00137526 0.109297
RightToes  -23.884 -0.104152 -0.207294
83
root  -0.619671 33.7058 -8.69643 7.51733 -18.2934 -6.57352
LeftUpLeg  -14.3939 15.3635 17.2742
LeftLeg  4.62892 19.3332 0.313076
LeftFoot  22.0349 -1.47026 7.54104
LeftToes  -27.9108 8.556e-007 1.17171e-007
Spine  2.38084 -2.68977 5.02069
Spine1  4.44926 -5.49458 9.69718
RightShoulder  0.0433288 4.55344 6.61437
RightArm  -32.9525 -4.22696 65.9892
RightForeArm  23.8221 27.8628 5.34467
RightHand  1.3688 -12.7133 -11.8649
LeftShoulder1  0.00613842 2.62 -3.52593
LeftArm  30.7552 -18.2497 -85.4295
LeftForeArm  130.463 -46.7833 -168.892
LeftHand  2.20823 13.3877 18.272
HEad  37.7274 -9.82582 -7.40848
RightUpLeg  -10.7556 -9.08864 9.44348
RightLeg  11.1401 11.8845 1.54778
RightFoot  0.439055 0.00113464 0.0812802
RightToes  -23.1975 -0.0999915 -0.202021
84
root  -0.744411 33.6637 -8.84749 7.38057 -18.1395 -6.82739
LeftUpLeg  -14.6834 15.1363 17.8349
LeftLeg  5.19314 19.3128 0.499379
LeftFoot  22.2134 -1.49259 7.59237
LeftToes  -28.1413 8.556e-007 1.17171e-007
Spine  2.30149 -2.60198 5.08148
Spine1  4.28965 -5.31562 9.82883
RightShoulder  0.046346 4.93164 6.74715
RightArm  -32.8594 -3.97689 66.7648
RightForeArm  24.4623 26.805 5.10688
RightHand  1.34575 -12.691 -11.6815
LeftShoulder1  0.00713303 2.39367 -3.44621
LeftArm  30.5631 -18.1044 -85.6839
LeftForeArm  129.982 -46.7431 -168.909
LeftHand  2.21789 13.4655 18.2449
HEad  37.5267 -9.75943 -6.98427
RightUpLeg  -10.9007 -9.1904 9.99018
RightLeg  11.5105 11.8093 1.61521
RightFoot  0.236533 0.00115094 0.0389415
RightToes  -22.4947 -0.0954852 -0.196571
85
root  -0.852821 33.6224 -9.00385 7.23105 -17.6324 -7.05872
LeftUpLeg  -15.1941 14.795 18.2865
LeftLeg  5.8401 19.0796 0.705168
LeftFoot  22.3676 -1.49355 7.54369
LeftToes  -28.1457 8.556e-007 1.17171e-007
Spine  2.24517 -2.5838 5.1659
Spine1  4.16714 -5.27924 10.0051
RightShoulder  0.0492313 5.10364 7.00552
RightArm  -33.077 -4.05949 67.4742
RightForeArm  25.2781 25.4578 4.81056
RightHand  1.32295 -12.5829 -11.5806
LeftShoulder1  0.00841968 2.25403 -3.26374
LeftArm  30.3109 -17.8889 -86.103
LeftForeArm  129.757 -46.7714 -168.899
LeftHand  2.22737 13.6094 18.1271
HEad  37.4645 -9.80738 -6.70356
RightUpLeg  -11.0865 -9.47538 10.5185
RightLeg  11.867 11.5337 1.65059
RightFoot  0.00949732 0.00117444 -0.00863577
RightToes  -21.8497 -0.092008 -0.191525
86
root  -0.950479 33.5821 -9.15608 7.14973 -16.6547 -7.36332
LeftUpLeg  -15.9132 14.2937 18.6971
LeftLeg  6.33801 18.697 0.851341
LeftFoot  22.5597 -1.48594 7.43998
LeftToes  -28.0971 8.556e-007 1.17171e-007
Spine  2.17222 -2.66901 5.32749
Spine1  3.99709 -5.446 10.3248
RightShoulder  0.0532354 5.08908 7.40059
RightArm  -33.7423 -4.5929 67.9809
RightForeArm  26.2066 24.0291 4.50365
RightHand  1.26514 -12.3201 -11.3058
LeftShoulder1  0.00996657 2.17432 -3.15848
LeftArm  30.1859 -17.7233 -86.5385
LeftForeArm  129.433 -46.8425 -168.873
LeftHand  2.22187 13.6123 18.0784
HEad  37.5076 -9.76218 -6.45757
RightUpLeg  -11.3099 -10.1835 11.1267
RightLeg  12.0777 11.2958 1.65908
RightFoot  -0.120954 -0.000436 -0.0357241
RightToes  -21.4581 -0.0902478 -0.188161
87
root  -1.03325 33.5361 -9.31347 7.0295 -15.6196 -7.55946
LeftUpLeg  -16.4639 13.4638 19.0194
LeftLeg  6.38002 18.5184 0.856854
LeftFoot  22.9488 -1.52105 7.48309
LeftToes  -27.8988 8.556e-007 1.17171e-007
Spine  2.18078 -2.70489 5.48686
Spine1  3.9998 -5.51187 10.625
RightShoulder  0.05982 4.99362 7.92053
RightArm  -34.2866 -5.50561 68.0709
RightForeArm  26.1751 22.7518 4.23546
RightHand  1.25295 -12.3452 -11.1706
LeftShoulder1  0.0117419 2.0218 -3.06144
LeftArm  29.8983 -17.961 -86.9145
LeftForeArm  128.507 -46.7435 -168.915
LeftHand  2.3291 14.0774 18.3198
HEad  37.2624 -9.68588 -6.045
RightUpLeg  -11.6404 -10.6008 11.6019
RightLeg  12.4498 10.6918 1.6419
RightFoot  -0.367109 -0.00146995 -0.0814415
RightToes  -21.1539 -0.0889838 -0.186034
88
root  -1.09069 33.4724 -9.48906 6.84804 -14.3509 -7.9103
LeftUpLeg  -17.0932 12.3712 19.4633
LeftLeg  6.45988 18.4273 0.878068
LeftFoot  23.2664 -1.55219 7.52911
LeftToes  -27.6912 8.556e-007 1.17171e-007
Spine  2.30183 -2.80334 5.75246
Spine1  4.1856 -5.72253 11.1091
RightShoulder  0.0754658 4.9831 8.52748
RightArm  -35.472 -6.54297 67.763
RightForeArm  26.0172 21.3409 3.94526
RightHand  1.21185 -12.2704 -10.8626
LeftShoulder1  0.0155638 1.86352 -2.89212
LeftArm  29.1607 -18.4365 -87.5609
LeftForeArm  127.226 -46.6966 -168.937
LeftHand  2.50047 14.8824 18.5941
HEad  36.6222 -9.53673 -5.42101
RightUpLeg  -12.1209 -10.8335 12.1864
RightLeg  13.1726 9.6455 1.60682
RightFoot  -0.757211 -0.0034595 -0.146115
RightToes  -20.821 -0.0881872 -0.184627
89
root  -1.11289 33.3995 -9.68803 6.54515 -12.9457 -8.27918
LeftUpLeg  -17.7068 11.4109 19.8177
LeftLeg  6.40681 18.103 0.846608
LeftFoot  23.7199 -1.5765 7.49677
LeftToes  -27.7613 8.556e-007 1.17171e-007
Spine  2.57853 -2.95849 6.0874
Spine1  4.63753 -6.08265 11.7226
RightShoulder  0.0982241 5.0518 9.02105
RightArm  -37.0202 -7.49123 67.1351
RightForeArm  25.6325 20.0689 3.68865
RightHand  1.15982 -12.3858 -10.2828
LeftShoulder1  0.0223988 1.67214 -2.76971
LeftArm  27.9245 -19.1792 -88.1536
LeftForeArm  125.988 -46.7962 -168.904
LeftHand  2.59962 15.582 18.4539
HEad  35.3665 -9.23509 -4.63871
RightUpLeg  -12.734 -11.0062 12.7146
RightLeg  14.2398 8.3994 1.56127
RightFoot  -1.21884 -0.00622695 -0.207983
RightToes  -20.7151 -0.0878292 -0.183411
90
root  -1.0929 33.3306 -9.91093 6.15818 -11.3747 -8.55447
LeftUpLeg  -18.3008 10.8107 19.8633
LeftLeg  6.04429 17.3605 0.704626
LeftFoot  24.0861 -1.54433 7.22957
LeftToes  -27.1133 8.556e-007 1.17171e-007
Spine  2.96049 -3.16438 6.40677
Spine1  5.25559 -6.58929 12.3436
RightShoulder  0.119951 5.09059 9.39891
RightArm  -38.7192 -8.19602 66.2346
RightForeArm  25.3311 18.4465 3.36749
RightHand  1.12687 -12.997 -9.49386
LeftShoulder1  0.0320435 1.33615 -2.55027
LeftArm  26.3077 -20.0937 -88.7545
LeftForeArm  125.05 -46.9689 -168.841
LeftHand  2.71192 16.2604 18.4384
HEad  33.5261 -8.90435 -3.61609
RightUpLeg  -13.3987 -11.3322 13.0837
RightLeg  15.3045 7.14028 1.46565
RightFoot  -1.65171 -0.00905609 -0.250799
RightToes  -20.3074 -0.0878811 -0.182637
91
root  -1.03135 33.2781 -10.1547 5.73855 -9.70161 -8.67209
LeftUpLeg  -18.9583 10.7109 19.4841
LeftLeg  5.60301 16.3245 0.539576
LeftFoot  23.7949 -1.40014 6.63851
LeftToes  -25.403 8.556e-007 1.17171e-007
Spine  3.40105 -3.41753 6.6726
Spine1  5.95561 -7.23131 12.9246
RightShoulder  0.137987 5.32523 9.5991
RightArm  -40.2268 -8.89234 65.1974
RightForeArm  25.9898 16.6001 3.00931
RightHand  1.18133 -13.5724 -9.52843
LeftShoulder1  0.0432294 0.887683 -2.27484
LeftArm  24.3831 -21.2505 -89.2336
LeftForeArm  124.169 -47.2793 -168.723
LeftHand  2.7785 16.8194 18.2545
HEad  31.3409 -8.45923 -2.46562
RightUpLeg  -14.0023 -11.8256 13.2445
RightLeg  16.0561 5.91878 1.29666
RightFoot  -1.8245 -0.0100212 -0.251889
RightToes  -20.2718 -0.0883141 -0.182554
92
root  -0.929491 33.2692 -10.4102 5.39662 -8.10474 -8.46877
LeftUpLeg  -19.924 11.5604 18.4059
LeftLeg  5.79598 15.1142 0.550851
LeftFoot  21.3812 -1.03237 5.46454
LeftToes  -23.7945 8.556e-007 1.17171e-007
Spine  3.80608 -3.62787 6.81993
Spine1  6.58474 -7.80384 13.3413
RightShoulder  0.147999 5.55058 9.68422
RightArm  -40.8097 -9.88906 64.2013
RightForeArm  27.6967 14.8639 2.67858
RightHand  1.35361 -13.7287 -10.8338
LeftShoulder1  0.0538698 0.487499 -2.04013
LeftArm  22.6379 -22.4497 -89.5625
LeftForeArm  124.137 -47.7686 -168.53
LeftHand  2.7525 17.0693 17.8138
HEad  29.3621 -7.92808 -1.3813
RightUpLeg  -14.4189 -12.0723 13.0111
RightLeg  16.0827 4.54576 0.99878
RightFoot  -1.50551 -0.00759913 -0.200915
RightToes  -20.6723 -0.0890994 -0.183409
93
root  -0.79298 33.3039 -10.6826 5.11751 -6.78428 -7.7324
LeftUpLeg  -21.3867 13.2906 16.5218
LeftLeg  7.43611 14.7441 0.955936
LeftFoot  18.5071 -0.748087 4.58925
LeftToes  -21.9905 8.556e-007 1.17171e-007
Spine  4.13465 -3.76164 6.75968
Spine1  7.11048 -8.21235 13.3941
RightShoulder  0.14761 5.88899 9.6354
RightArm  -41.3714 -11.2273 63.4251
RightForeArm  29.5476 13.3337 2.39136
RightHand  1.45223 -13.6685 -11.6975
LeftShoulder1  0.0616888 0.195049 -1.86483
LeftArm  20.9574 -23.508 -89.5363
LeftForeArm  124.569 -48.1313 -168.382
LeftHand  2.7228 17.1025 17.5859
HEad  27.4241 -7.46594 -0.630769
RightUpLeg  -14.6888 -11.9774 12.1729
RightLeg  15.569 3.13265 0.659474
RightFoot  -0.89499 -0.00407337 -0.144091
RightToes  -21.0805 -0.0902083 -0.185453
94
root  -0.620607 33.3687 -10.9651 5.13266 -5.81786 -6.45909
LeftUpLeg  -23.3305 14.9428 14.0423
LeftLeg  11.2419 15.99 2.09258
LeftFoot  16.0311 -0.613703 4.35608
LeftToes  -22.8619 8.556e-007 1.17171e-007
Spine  4.30723 -3.76825 6.44493
Spine1  7.43062 -8.31543 12.922
RightShoulder  0.140427 6.23445 9.58584
RightArm  -41.9621 -12.8573 62.9509
RightForeArm  30.8265 12.1918 2.17948
RightHand  1.48702 -14.1169 -11.5912
LeftShoulder1  0.0644671 0.105592 -1.51878
LeftArm  19.3395 -24.4014 -89.3923
LeftForeArm  124.467 -48.2735 -168.325
LeftHand  2.70655 17.127 17.455
HEad  25.7945 -7.16091 -0.0851168
RightUpLeg  -15.1505 -11.9027 10.7963
RightLeg  14.8102 2.1052 0.414571
RightFoot  -0.0395484 -0.000165658 -0.104289
RightToes  -21.7817 -0.0916119 -0.190991
